<?xml version="1.0" encoding="UTF-8"?>
<svg xmlns="http://www.w3.org/2000/svg" width="64" height="64" viewBox="0 0 64 64">
  <defs>
    <linearGradient id="g" x1="0" x2="1" y1="0" y2="1">
      <stop offset="0%" stop-color="#7c3aed"/>
      <stop offset="100%" stop-color="#8b5cf6"/>
    </linearGradient>
  </defs>
  <rect width="64" height="64" rx="12" fill="url(#g)"/>
  <g transform="translate(8,8) scale(0.75)" fill="#fff" fill-rule="evenodd">
    <path d="M20 4c-6 0-12 5-12 11 0 6 6 11 12 11s12-5 12-11c0-6-6-11-12-11zm0 2c4.4 0 8 3.6 8 8s-3.6 8-8 8-8-3.6-8-8 3.6-8 8-8z"/>
    <path d="M10 36c2-4 8-6 18-6s16 2 18 6H10z" opacity="0.9"/>
  </g>
</svg>
